<?xml version="1.0" encoding="UTF-8"?>
<svg width="24px" height="24px" viewBox="0 0 24 24" version="1.1" xmlns="http://www.w3.org/2000/svg" xmlns:xlink="http://www.w3.org/1999/xlink">
    <!-- Generator: Sketch 54.1 (76490) - https://sketchapp.com -->
    <title>编辑地址@1x</title>
    <desc>Created with Sketch.</desc>
    <g id="编辑地址" stroke="none" stroke-width="1" fill="none" fill-rule="evenodd">
        <g id="编辑">
            <rect id="Rectangle-24" x="0" y="0" width="24" height="24"></rect>
            <path d="M4.5,18.5715744 L19.5,18.5715744 C19.7761424,18.5715744 20,18.795432 20,19.0715744 C20,19.3477168 19.7761424,19.5715744 19.5,19.5715744 L4.5,19.5715744 C4.22385763,19.5715744 4,19.3477168 4,19.0715744 C4,18.795432 4.22385763,18.5715744 4.5,18.5715744 Z M16.4084828,4.58578644 L17.1155896,5.29289322 C17.8966382,6.0739418 17.8966382,7.34027176 17.1155896,8.12132034 L8.81944391,16.417466 C8.10690572,17.1300042 7.15168595,17.5473553 6.14474927,17.5860836 L5.11331622,17.6257541 C4.56143952,17.6469801 4.09684796,17.2168028 4.07562193,16.6649261 C4.07463683,16.6393135 4.07463683,16.6136724 4.07562193,16.5880598 L4.11529243,15.5566268 C4.15402076,14.5496901 4.57137181,13.5944703 5.28391,12.8819321 L13.5800557,4.58578644 C14.3611043,3.80473785 15.6274342,3.80473785 16.4084828,4.58578644 Z M15.701376,5.29289322 C15.3108518,4.90236893 14.6776868,4.90236893 14.2871625,5.29289322 L5.84566553,13.7343902 C5.56290008,14.0171556 5.37139252,14.3781941 5.29587012,14.7708886 L5.04604655,16.0698985 C5.03404954,16.1322794 5.03404954,16.1963751 5.04604655,16.258756 C5.09819813,16.5299291 5.36030453,16.7074811 5.63147758,16.6553295 L6.93048748,16.4055059 C7.32318198,16.3299835 7.68422043,16.138476 7.96698588,15.8557105 L16.4084828,7.41421356 C16.7990071,7.02368927 16.7990071,6.39052429 16.4084828,6 L15.701376,5.29289322 Z" id="Combined-Shape" fill="#808080"></path>
        </g>
    </g>
</svg>