<?xml version="1.0" encoding="UTF-8"?>
<svg width="24px" height="24px" viewBox="0 0 24 24" version="1.1" xmlns="http://www.w3.org/2000/svg" xmlns:xlink="http://www.w3.org/1999/xlink">
    <!-- Generator: Sketch 54.1 (76490) - https://sketchapp.com -->
    <title>查看更多@1x</title>
    <desc>Created with Sketch.</desc>
    <g id="查看更多" stroke="none" stroke-width="1" fill="none" fill-rule="evenodd">
        <g id="Arrow">
            <rect id="Bounds" x="0" y="0" width="24" height="24"></rect>
            <path d="M9.20355881,7.18607157 L9.20355881,7.18607157 C9.48776609,6.93465744 9.91593963,6.93844629 10.1956533,7.19485048 L14.8993907,11.5066097 C15.3065097,11.8798021 15.3340126,12.5123695 14.9608202,12.9194885 C14.9412432,12.9408452 14.9207474,12.961341 14.8993907,12.980918 L10.1956533,17.2926773 C9.91593963,17.5490815 9.48776609,17.5528703 9.20355881,17.3014562 L9.20355881,17.3014562 C8.95401939,17.0807098 8.93067804,16.6994678 9.15142446,16.4499283 C9.16490068,16.4346943 9.17913874,16.4201516 9.19408406,16.406356 L13.5443514,12.3907246 C13.6255155,12.3158038 13.6305768,12.189272 13.5556561,12.1081078 C13.55204,12.1041905 13.5482688,12.1004192 13.5443514,12.0968032 L9.19408406,8.0811718 C8.94927328,7.85519262 8.93400725,7.47354195 9.15998643,7.22873117 C9.17378211,7.21378585 9.18832482,7.1995478 9.20355881,7.18607157 Z" fill="#808080" opacity="0.400000006"></path>
        </g>
    </g>
</svg>